<svg width="35" height="35" viewBox="0 0 35 35" fill="none" xmlns="http://www.w3.org/2000/svg"
>
    <path
        d="M30.2503 30.2503L23.9168 23.9168M23.9168 23.9168C25.0001 22.8334 25.8595 21.5472 26.4458 20.1317C27.0322 18.7162 27.3339 17.1991 27.3339 15.667C27.3339 14.1348 27.0322 12.6177 26.4458 11.2022C25.8595 9.78671 25.0001 8.50055 23.9168 7.41718C22.8334 6.3338 21.5472 5.47441 20.1317 4.8881C18.7162 4.30178 17.1991 4 15.667 4C14.1348 4 12.6177 4.30178 11.2022 4.8881C9.78671 5.47442 8.50055 6.3338 7.41718 7.41718C5.22919 9.60516 4 12.5727 4 15.667C4 18.7612 5.22919 21.7288 7.41718 23.9168C9.60516 26.1047 12.5727 27.3339 15.667 27.3339C18.7612 27.3339 21.7288 26.1047 23.9168 23.9168Z"
        stroke="#7D3EF7" stroke-width="2" stroke-linecap="round" stroke-linejoin="round" />
</svg>